<svg width="109" height="38" viewBox="0 0 109 38" fill="none" xmlns="http://www.w3.org/2000/svg">
<g clip-path="url(#clip0_35_38)">
<path d="M9.16903 33L1.67756 6.81818H7.72443L12.0582 25.0099H12.2756L17.0568 6.81818H22.2344L27.0028 25.0483H27.233L31.5668 6.81818H37.6136L30.1222 33H24.7273L19.7415 15.8821H19.5369L14.5639 33H9.16903ZM40.5763 33V6.81818H58.2184V11.3821H46.1119V17.6207H57.3107V22.1847H46.1119V28.4361H58.2695V33H40.5763Z" fill="url(#paint0_linear_35_38)"/>
<path d="M62.6193 33V6.81818H80.2614V11.3821H68.1548V17.6207H79.3537V22.1847H68.1548V28.4361H80.3125V33H62.6193ZM84.6623 33V6.81818H95.1452C97.0714 6.81818 98.6779 7.10369 99.9648 7.67472C101.252 8.24574 102.219 9.03835 102.867 10.0526C103.515 11.0582 103.838 12.2173 103.838 13.5298C103.838 14.5526 103.634 15.4517 103.225 16.2273C102.816 16.9943 102.253 17.625 101.537 18.1193C100.83 18.6051 100.02 18.9503 99.1083 19.1548V19.4105C100.105 19.4531 101.039 19.7344 101.908 20.2543C102.786 20.7741 103.498 21.5028 104.043 22.4403C104.588 23.3693 104.861 24.4773 104.861 25.7642C104.861 27.1534 104.516 28.3935 103.826 29.4844C103.144 30.5668 102.134 31.4233 100.796 32.054C99.4577 32.6847 97.8086 33 95.8484 33H84.6623ZM90.1978 28.4744H94.7106C96.2532 28.4744 97.3782 28.1804 98.0856 27.5923C98.793 26.9957 99.1467 26.2031 99.1467 25.2145C99.1467 24.4901 98.9719 23.8509 98.6225 23.2969C98.2731 22.7429 97.7745 22.3082 97.1268 21.9929C96.4876 21.6776 95.7248 21.5199 94.8384 21.5199H90.1978V28.4744ZM90.1978 17.7741H94.3015C95.06 17.7741 95.7333 17.642 96.3214 17.3778C96.918 17.1051 97.3867 16.7216 97.7276 16.2273C98.0771 15.733 98.2518 15.1406 98.2518 14.4503C98.2518 13.5043 97.9151 12.7415 97.2418 12.1619C96.5771 11.5824 95.631 11.2926 94.4038 11.2926H90.1978V17.7741Z" fill="url(#paint1_linear_35_38)"/>
</g>
<defs>
<linearGradient id="paint0_linear_35_38" x1="1" y1="20.7097" x2="57.5002" y2="20.013" gradientUnits="userSpaceOnUse">
<stop stop-color="#FF55A5"/>
<stop offset="0.593419" stop-color="#FF5779"/>
<stop offset="1" stop-color="#FF5860"/>
</linearGradient>
<linearGradient id="paint1_linear_35_38" x1="12" y1="20" x2="96.5" y2="20" gradientUnits="userSpaceOnUse">
<stop stop-color="#FF55A5"/>
<stop offset="0.593419" stop-color="#FF5779"/>
<stop offset="1" stop-color="#FF5860"/>
</linearGradient>
<clipPath id="clip0_35_38">
<rect width="109" height="38" fill="white"/>
</clipPath>
</defs>
</svg>
